<?xml version="1.0" encoding="utf-8"?>
<!-- Generator: Adobe Illustrator 19.1.0, SVG Export Plug-In . SVG Version: 6.00 Build 0)  -->
<svg version="1.1" id="Lager_1" xmlns="http://www.w3.org/2000/svg" xmlns:xlink="http://www.w3.org/1999/xlink" x="0px" y="0px"
	 viewBox="0 0 841.9 595.3" style="enable-background:new 0 0 841.9 595.3;" xml:space="preserve">
<style type="text/css">
	.st0{fill:#FFFFFF;}
</style>
<g>
	<path class="st0" d="M322.3,247.2c8.4,0,12.2-3.6,12.2-9.5v-28.4c0-5.9-3.7-9.5-12.2-9.5c-8.4,0-12.2,3.6-12.2,9.5v28.4
		C310.1,243.6,313.8,247.2,322.3,247.2z"/>
	<path class="st0" d="M230.5,383.4v-6.5c0-3.3-2-5.3-6.8-5.3h-10.5v17.1h10.5C228.2,388.7,230.5,386.4,230.5,383.4z"/>
	<path class="st0" d="M289,371.8c-8.4,0-12.2,3.6-12.2,9.5v28.4c0,5.9,3.7,9.5,12.2,9.5c8.4,0,12.2-3.6,12.2-9.5v-28.4
		C301.1,375.4,297.4,371.8,289,371.8z"/>
	<path class="st0" d="M230.5,211.5v-6.5c0-3.3-2-5.3-6.8-5.3h-10.5v17.1h10.5C228.2,216.8,230.5,214.5,230.5,211.5z"/>
	<path class="st0" d="M226.1,401.9h-12.8v17.4h10.5c5.3,0,9.5-1.1,9.5-6.5v-4.6C233.2,404,230.6,401.9,226.1,401.9z"/>
	<path class="st0" d="M556.6,372.9h-13.4V395h13.4c7.2,0,9-2.6,9-8.2v-6C565.6,375.2,563.4,372.9,556.6,372.9z"/>
	<path class="st0" d="M360.1,372.9h-13.4V395h13.4c7.2,0,9-2.6,9-8.2v-6C369.1,375.2,367,372.9,360.1,372.9z"/>
	<path class="st0" d="M428.1,372.9H418v45h10.1c8.4,0,10.5-3.3,10.5-9.1v-26.8C438.6,376.2,436.6,372.9,428.1,372.9z"/>
	<path class="st0" d="M233.2,240.8v-4.6c0-4.2-2.6-6.3-7.1-6.3h-12.8v17.4h10.5C229,247.4,233.2,246.3,233.2,240.8z"/>
	<path class="st0" d="M488.1,285.8c-8.4,0-12.2,3.6-12.2,9.5v28.4c0,5.9,3.7,9.5,12.2,9.5c8.4,0,12.2-3.6,12.2-9.5v-28.4
		C500.2,289.4,496.5,285.8,488.1,285.8z"/>
	<path class="st0" d="M652.5,130h9.7v-13.4h-68.7H181.1V130h9.7l3.9,3.9v33.7l-3.9,3.9h-9.7V448h9.7l3.9,3.9v33.7l-3.9,3.9h-9.7
		v13.4h412.5h68.7v-13.4h-9.7l-3.9-3.9v-33.7l3.9-3.9h9.7V171.4h-9.7l-3.9-3.9v-33.7L652.5,130z M647,206.4l-23.6,27.3l-3-2.6
		l23.6-27.3L647,206.4z M647,241.4l-3,2.6l-12.1-14l3-2.6L647,241.4z M628.3,216.4l-15,17.3l-3-2.6l15-17.3L628.3,216.4z M618,215.9
		l-23.2,26.8l-3-2.6l23.2-26.8L618,215.9z M512.1,386.7v15h-27.9V418h30.3v15h-47.2v-75h47.2v15h-30.3v13.7H512.1z M488.1,348.1
		c-21.2,0-29-11.6-29-23v-31.3c0-11.4,7.9-23,29-23c21.2,0,29,11.6,29,23v31.3C517.1,336.5,509.2,348.1,488.1,348.1z M408.1,316.8
		V347h-16.9v-75h16.9v29.8h24.2V272h16.9v75h-16.9v-30.2H408.1z M419.8,233.4l-3.4-4h67.2l-3.4,4H419.8z M497.6,231.1l15-17.3l3,2.6
		l-15,17.3L497.6,231.1z M510.7,233.7l-3-2.6l23.6-27.3l3,2.6L510.7,233.7z M525.8,221.7h71.8l3.5-4.2l-9.9-11.5l3-2.6l12.2,14.1
		l-6.9,8.2h-71.8l-3.5,4.2l9.9,11.5l-3,2.6l-12.2-14.1L525.8,221.7z M526.8,272h16.9v51.6c0,6.1,2.9,9.6,11.4,9.6
		c8.4,0,11.4-3.5,11.4-9.6V272h16.9v53.1c0,11.4-7.1,23-28.3,23c-21.2,0-28.3-11.6-28.3-23V272z M532.4,233.4l-3.4-4h67.2l-3.4,4
		H532.4z M579.9,133.8l3.9-3.9h9.7h9.7l3.9,3.9v33.7l-3.9,3.9h-9.7h-9.7l-3.9-3.9V133.8z M511.1,133.8l3.9-3.9h19.5l3.9,3.9v33.7
		l-3.9,3.9H515l-3.9-3.9V133.8z M505.4,215.9l-23.2,26.8l-3-2.6l23.2-26.8L505.4,215.9z M481.6,203.5L481.6,203.5l12.2,14.1l0,0
		l-6.9,8.2H415l-3.5,4.2l9.9,11.5l-3,2.6l-12.2-14.1l6.9-8.2h71.8l3.5-4.2l-9.9-11.5L481.6,203.5z M442.4,133.8l3.9-3.9h19.5
		l3.9,3.9v33.7l-3.9,3.9h-19.5l-3.9-3.9V133.8z M421.6,206.4L398,233.7l-3-2.6l23.6-27.3L421.6,206.4z M388,233.7l-3-2.6l15-17.3
		l3,2.6L388,233.7z M373.6,133.8l3.9-3.9H397l3.9,3.9v33.7l-3.9,3.9h-19.5l-3.9-3.9V133.8z M369.5,203l12.1,14l-3,2.6l-12.2-14
		L369.5,203z M389.7,213.3l3,2.6l-23.2,26.8l-3-2.6L389.7,213.3z M326.5,287v-15h57.2v15h-20.1v60h-16.9v-60H326.5z M304.8,133.8
		l3.9-3.9h19.5l3.9,3.9v33.7l-3.9,3.9h-19.5l-3.9-3.9V133.8z M293.3,207.9c0-11.4,7.9-23,29-23c21.2,0,29,11.6,29,23v31.3
		c0,11.4-7.9,23-29,23c-21.2,0-29-11.6-29-23V207.9z M318.9,272v75h-16.9v-75H318.9z M236.1,133.8l3.9-3.9h19.5l3.9,3.9v33.7
		l-3.9,3.9H240l-3.9-3.9V133.8z M279.5,186v75h-16.9v-75H279.5z M196.3,186h29.6c15.6,0,21.4,6.3,21.4,16.4v7.7
		c0,5.4-2.4,9.2-8.3,11.8c6.2,1.5,11,6.9,11,13.8v7.3c0,10.6-6.8,17.9-21.7,17.9h-32V186z M189.6,272h16.7l12.7,53.6L232,272h20.6
		l12.8,53.6l12.6-53.6h16.7l-18.3,75h-21.5l-12.6-57l-12.7,57h-21.5L189.6,272z M196.3,432.9v-75h29.6c15.6,0,21.4,6.3,21.4,16.4
		v7.7c0,5.4-2.4,9.2-8.3,11.8c6.2,1.5,11,6.9,11,13.8v7.3c0,10.6-6.8,17.9-21.7,17.9H196.3z M263.4,485.6l-3.9,3.9H240l-3.9-3.9
		v-33.7l3.9-3.9h19.5l3.9,3.9V485.6z M259.9,411.1v-31.3c0-11.4,7.9-23,29-23c21.2,0,29,11.6,29,23v31.3c0,11.4-7.9,23-29,23
		C267.8,434.1,259.9,422.5,259.9,411.1z M332.2,485.6l-3.9,3.9h-19.5l-3.9-3.9v-33.7l3.9-3.9h19.5l3.9,3.9V485.6z M356.6,409.6h-9.9
		v23.3h-16.9v-75H361c18.2,0,25,7.2,25,21.3v9.2c0,9.3-3.4,15.6-10.9,18.8l18.1,25.7h-20L356.6,409.6z M400.9,485.6l-3.9,3.9h-19.5
		l-3.9-3.9v-33.7l3.9-3.9H397l3.9,3.9V485.6z M401.1,432.9v-75h29c18.5,0,25.3,9.3,25.3,19.5v36c0,10-6.9,19.5-25.3,19.5H401.1z
		 M469.7,485.6l-3.9,3.9h-19.5l-3.9-3.9v-33.7l3.9-3.9h19.5l3.9,3.9V485.6z M538.4,485.6l-3.9,3.9H515l-3.9-3.9v-33.7l3.9-3.9h19.5
		l3.9,3.9V485.6z M553.1,409.6h-9.9v23.3h-16.9v-75h31.2c18.2,0,25,7.2,25,21.3v9.2c0,9.3-3.4,15.6-10.9,18.8l18.1,25.7h-20
		L553.1,409.6z M607.1,485.6l-3.9,3.9h-9.7h-9.7l-3.9-3.9v-33.7l3.9-3.9h9.7h9.7l3.9,3.9V485.6z M619.5,434.1
		c-8.7,0-17.8-1.9-24.2-4.8l2.8-13.1c6.9,2.1,13.8,3.6,21.6,3.6c8.7,0,10.4-1.7,10.4-8c0-6.8-0.3-7.5-12.6-10.2
		c-18.1-3.9-20.8-7.5-20.8-23.8c0-15,5.3-20.9,25.9-20.9c6.5,0,14.4,0.7,22.7,2.5l-1.7,14.2c-8.6-1.5-14.1-2.1-20.8-2.1
		c-7.5,0-9.2,1.4-9.2,6.9c0,7.2,0.3,7.3,12.2,10.1c20.3,4.8,21.3,8.8,21.3,23.5C647,426.7,642.1,434.1,619.5,434.1z M647.4,287
		h-20.1v60h-16.9v-60h-20.1v-15h57.2V287z"/>
</g>
</svg>
