<?xml version="1.0" encoding="utf-8"?>
<!-- Generator: Adobe Illustrator 18.1.1, SVG Export Plug-In . SVG Version: 6.00 Build 0)  -->
<!DOCTYPE svg PUBLIC "-//W3C//DTD SVG 1.1//EN" "http://www.w3.org/Graphics/SVG/1.1/DTD/svg11.dtd">
<svg version="1.1" id="Lager_1" xmlns="http://www.w3.org/2000/svg" xmlns:xlink="http://www.w3.org/1999/xlink" x="0px" y="0px"
	 viewBox="0 0 868 135.5" enable-background="new 0 0 868 135.5" xml:space="preserve">
<g>
	<path fill="#fb6155" d="M0,135.5L29.9,0h75.3c27.4,0,39.2,17.5,39.2,33.7c0,17.3-14.4,33.1-30.5,34.5c13.2,3.7,19.3,15.4,19.3,26.8
		c0,17.9-12.4,40.4-48.1,40.4H0z M92.4,91.8c0-4.5-3-7.7-7.7-7.7H52.4l-3.9,17.3h32.3C87.7,101.3,92.4,97.5,92.4,91.8z M100.7,40.8
		c0-3.7-2.4-6.7-7.3-6.7H63.8L59.9,50h30.9C98.5,50,100.7,45.1,100.7,40.8z"/>
	<path fill="#fb6155" d="M211.2,135.5l-9.3-42.6h-16.5l-9.3,42.6h-41L164.9,0h65.8c24.6,0,45.5,16,45.5,41c0,24-15.6,42.4-33.3,48.7
		l13.4,45.7H211.2z M218.3,57.1c8.9,0,15.4-3.9,15.4-11.6c0-5.7-5.1-9.7-11.4-9.7H198l-4.7,21.3h24.4H218.3z"/>
	<path fill="#fb6155" d="M269.3,135.5L299.2,0h102.8L394,35.7h-61.7l-2.8,13.4h60.3l-7.9,35.7h-60.3l-3.2,14.8H380l-7.9,35.7H269.3z
		"/>
	<path fill="#fb6155" d="M486,135.5l-1.4-15.8h-48.7l-8.3,15.8H379L458.8,0h51.6l20.1,135.5H486z M477.7,40.2l-22.9,43.7h26.8
		L477.7,40.2z"/>
	<path fill="#fb6155" d="M618.8,135.5l-20.9-48.9l-10.8,11.4l-8.3,37.6h-41L567.6,0h41l-10.6,47.9L642.2,0h52.2l-65,63l37.4,72.5
		H618.8z"/>
	<path fill="#fb6155" d="M674.1,135.5L703.9,0h41l-29.9,135.5H674.1z"/>
	<path fill="#fb6155" d="M761,135.5l21.9-99.7h-36.4L754.5,0H868l-7.9,35.7h-36.2L802,135.5H761z"/>
</g>
</svg>
